<svg width="20" height="18" viewBox="0 0 20 18" fill="none" xmlns="http://www.w3.org/2000/svg">
<path d="M0.331642 6.702C0.119292 6.91366 0 7.2007 0 7.5C0 7.79929 0.119292 8.08634 0.331642 8.298L6.73938 14.6832C6.95301 14.8888 7.23913 15.0025 7.53613 15C7.83312 14.9974 8.11722 14.8787 8.32723 14.6694C8.53724 14.4601 8.65637 14.177 8.65895 13.8811C8.66153 13.5851 8.54736 13.3 8.34103 13.0871L3.86683 8.62872H18.8673C19.1677 8.62872 19.4558 8.5098 19.6682 8.29812C19.8807 8.08645 20 7.79935 20 7.5C20 7.20064 19.8807 6.91355 19.6682 6.70188C19.4558 6.4902 19.1677 6.37128 18.8673 6.37128H3.86683L8.34103 1.91285C8.54736 1.69997 8.66153 1.41485 8.65895 1.11891C8.65637 0.822963 8.53724 0.539867 8.32723 0.330593C8.11722 0.12132 7.83312 0.00261436 7.53613 4.26685e-05C7.23913 -0.00252902 6.95301 0.111239 6.73938 0.316844L0.331642 6.702Z" fill="#BF262A"/>
</svg>
