<svg width="11" height="15" viewBox="0 0 11 15" fill="none" xmlns="http://www.w3.org/2000/svg">
<path d="M6.90128 1.06028C6.78996 0.942283 6.72836 0.784245 6.72975 0.620204C6.73115 0.456163 6.79542 0.299245 6.90872 0.183246C7.02203 0.0672471 7.1753 0.00144912 7.33553 2.36509e-05C7.49576 -0.00140182 7.65013 0.0616592 7.76539 0.175625L10.8209 3.30383C10.9355 3.42115 10.9999 3.58026 10.9999 3.74616C10.9999 3.91205 10.9355 4.07116 10.8209 4.18848L7.76539 7.31669C7.65013 7.43065 7.49576 7.49371 7.33553 7.49229C7.1753 7.49086 7.02203 7.42507 6.90872 7.30907C6.79542 7.19307 6.73115 7.03615 6.72975 6.87211C6.72836 6.70807 6.78996 6.55003 6.90128 6.43203L8.91367 4.3718H0.611111C0.449034 4.3718 0.293596 4.30588 0.17899 4.18855C0.0643849 4.07122 0 3.91209 0 3.74616C0 3.58023 0.0643849 3.42109 0.17899 3.30376C0.293596 3.18643 0.449034 3.12052 0.611111 3.12052H8.91367L6.90128 1.06028ZM4.09872 8.56797C4.21004 8.44997 4.27164 8.29193 4.27025 8.12789C4.26885 7.96385 4.20458 7.80693 4.09128 7.69093C3.97797 7.57494 3.8247 7.50914 3.66447 7.50771C3.50424 7.50629 3.34987 7.56935 3.23461 7.68331L0.179056 10.8115C0.06449 10.9288 0.000130547 11.0879 0.000130547 11.2538C0.000130547 11.4197 0.06449 11.5788 0.179056 11.6962L3.23461 14.8244C3.34987 14.9383 3.50424 15.0014 3.66447 15C3.8247 14.9986 3.97797 14.9328 4.09128 14.8168C4.20458 14.7008 4.26885 14.5438 4.27025 14.3798C4.27164 14.2158 4.21004 14.0577 4.09872 13.9397L2.08633 11.8795H10.3889C10.551 11.8795 10.7064 11.8136 10.821 11.6962C10.9356 11.5789 11 11.4198 11 11.2538C11 11.0879 10.9356 10.9288 10.821 10.8114C10.7064 10.6941 10.551 10.6282 10.3889 10.6282H2.08633L4.09872 8.56797Z" fill="#BF262A"/>
</svg>
