<svg width="13" height="16" viewBox="0 0 13 16" fill="none" xmlns="http://www.w3.org/2000/svg">
<path d="M6.40358 2.77236C5.31119 2.79197 4.25227 3.15103 3.37495 3.79934C2.49763 4.44765 1.8458 5.35277 1.51062 6.38809C1.17545 7.42341 1.1737 8.53714 1.50563 9.5735C1.83756 10.6099 2.48655 11.517 3.36184 12.168C3.49525 12.2676 3.58345 12.416 3.60704 12.5803C3.63062 12.7447 3.58766 12.9117 3.4876 13.0445C3.38754 13.1773 3.23857 13.2651 3.07348 13.2886C2.90839 13.3121 2.74068 13.2693 2.60727 13.1697C1.55158 12.384 0.760861 11.2972 0.340054 10.0537C-0.0807538 8.81007 -0.111746 7.46848 0.251191 6.20696C0.614127 4.94543 1.35383 3.82362 2.37212 2.99043C3.3904 2.15725 4.63912 1.65208 5.95252 1.54198L5.46289 1.05283C5.35182 0.934154 5.29135 0.777187 5.29422 0.614999C5.2971 0.452812 5.36309 0.298066 5.4783 0.183364C5.5935 0.068662 5.74893 0.00295915 5.91184 9.7535e-05C6.07474 -0.00276408 6.2324 0.0574389 6.3516 0.168023L8.1307 1.93847C8.24846 2.05586 8.3146 2.21498 8.3146 2.38088C8.3146 2.54678 8.24846 2.7059 8.1307 2.82328L6.3516 4.5954C6.2324 4.70599 6.07474 4.76619 5.91184 4.76333C5.74893 4.76047 5.5935 4.69476 5.4783 4.58006C5.36309 4.46536 5.2971 4.31061 5.29422 4.14843C5.29135 3.98624 5.35182 3.82927 5.46289 3.71059L6.40358 2.77236ZM6.59642 13.2048C7.68881 13.1851 8.74773 12.8261 9.62505 12.1778C10.5024 11.5295 11.1542 10.6243 11.4894 9.58903C11.8246 8.55371 11.8263 7.43997 11.4944 6.40362C11.1624 5.36726 10.5134 4.46012 9.63816 3.80909C9.50475 3.70947 9.41654 3.56116 9.39296 3.39679C9.36938 3.23242 9.41234 3.06546 9.5124 2.93263C9.61246 2.7998 9.76143 2.71199 9.92652 2.68851C10.0916 2.66502 10.2593 2.7078 10.3927 2.80742C11.4484 3.59312 12.2391 4.67988 12.6599 5.92346C13.0808 7.16704 13.1117 8.50863 12.7488 9.77016C12.3859 11.0317 11.6462 12.1535 10.6279 12.9867C9.6096 13.8199 8.36088 14.325 7.04748 14.4351L7.53711 14.9234C7.5972 14.9812 7.64513 15.0502 7.67812 15.1266C7.71111 15.203 7.7285 15.2851 7.72926 15.3682C7.73003 15.4513 7.71416 15.5338 7.68258 15.6107C7.65099 15.6877 7.60434 15.7576 7.54533 15.8164C7.48631 15.8752 7.41613 15.9218 7.33886 15.9533C7.2616 15.9848 7.17881 16.0007 7.09532 16C7.01182 15.9993 6.9293 15.9821 6.85257 15.9493C6.77584 15.9165 6.70643 15.8689 6.6484 15.8091L4.8693 14.0386C4.75154 13.9213 4.6854 13.7621 4.6854 13.5962C4.6854 13.4303 4.75154 13.2712 4.8693 13.1538L6.6484 11.3825C6.70597 11.321 6.77538 11.2717 6.85252 11.2375C6.92965 11.2033 7.01292 11.1849 7.09735 11.1834C7.18178 11.1819 7.26564 11.1974 7.34394 11.2289C7.42224 11.2603 7.49336 11.3072 7.55307 11.3667C7.61278 11.4261 7.65986 11.4969 7.69148 11.5749C7.72311 11.6528 7.73864 11.7363 7.73715 11.8204C7.73566 11.9044 7.71718 11.9873 7.68281 12.0641C7.64844 12.1409 7.59889 12.21 7.53711 12.2674L6.59642 13.2048Z" fill="#BF262A"/>
</svg>
