<svg width="15" height="18" viewBox="0 0 15 18" fill="none" xmlns="http://www.w3.org/2000/svg">
<path d="M14.684 11.203L8.25776 17.6824C8.15825 17.7831 8.04002 17.8629 7.90983 17.9174C7.77965 17.9719 7.64007 18 7.49911 18C7.35814 18 7.21857 17.9719 7.08838 17.9174C6.95819 17.8629 6.83996 17.7831 6.74046 17.6824L0.314243 11.203C0.113037 11.0001 -2.99821e-09 10.725 0 10.4381C2.99821e-09 10.1512 0.113037 9.87603 0.314243 9.67316C0.51545 9.47029 0.788345 9.35632 1.07289 9.35632C1.35744 9.35632 1.63034 9.47029 1.83154 9.67316L6.42896 14.3086V1.07989C6.42896 0.793489 6.5418 0.518813 6.74266 0.316294C6.94352 0.113774 7.21594 0 7.5 0C7.78406 0 8.05648 0.113774 8.25734 0.316294C8.45819 0.518813 8.57103 0.793489 8.57103 1.07989V14.3086L13.1685 9.67226C13.3697 9.46939 13.6426 9.35542 13.9271 9.35542C14.2117 9.35542 14.4845 9.46939 14.6858 9.67226C14.887 9.87513 15 10.1503 15 10.4372C15 10.7241 14.887 10.9992 14.6858 11.2021L14.684 11.203Z" fill="#BF262A"/>
</svg>
