<svg width="19" height="20" viewBox="0 0 19 20" fill="none" xmlns="http://www.w3.org/2000/svg">
<path d="M18.573 6.13393C18.4375 6.00057 18.2763 5.89482 18.0987 5.82278C17.9211 5.75075 17.7307 5.71387 17.5385 5.71429H14.6154V5C14.6154 3.67392 14.0764 2.40215 13.1171 1.46447C12.1578 0.526784 10.8567 0 9.5 0C8.14331 0 6.8422 0.526784 5.88287 1.46447C4.92355 2.40215 4.38461 3.67392 4.38461 5V5.71429H1.46154C1.07391 5.71429 0.702166 5.8648 0.428074 6.13271C0.153983 6.40061 0 6.76398 0 7.14286V16.7857C0 18.5268 1.50721 20 3.28846 20H15.7115C16.5731 20.0003 17.4007 19.671 18.0171 19.0826C18.3273 18.7933 18.5744 18.4456 18.7433 18.0604C18.9122 17.6752 18.9995 17.2606 19 16.8415V7.14286C19.0006 6.95544 18.9632 6.76977 18.8899 6.59659C18.8165 6.42341 18.7088 6.26615 18.573 6.13393ZM5.84615 5C5.84615 4.0528 6.23111 3.14439 6.91634 2.47462C7.60157 1.80485 8.53094 1.42857 9.5 1.42857C10.4691 1.42857 11.3984 1.80485 12.0837 2.47462C12.7689 3.14439 13.1538 4.0528 13.1538 5V5.71429H5.84615V5Z" fill="#BF262A"/>
</svg>
