<svg width="20" height="21" viewBox="0 0 20 21" fill="none" xmlns="http://www.w3.org/2000/svg">
<path d="M5.5 6.84615V5.38462C5.5 4.22174 5.97411 3.1065 6.81802 2.28422C7.66193 1.46195 8.80653 1 10 1C11.1935 1 12.3381 1.46195 13.182 2.28422C14.0259 3.1065 14.5 4.22174 14.5 5.38462V6.84615M1.75 6.84615C1.55109 6.84615 1.36032 6.92315 1.21967 7.06019C1.07902 7.19724 1 7.38311 1 7.57692V17.4423C1 18.8235 2.2075 20 3.625 20H16.375C17.7925 20 19 18.8806 19 17.4994V7.57692C19 7.38311 18.921 7.19724 18.7803 7.06019C18.6397 6.92315 18.4489 6.84615 18.25 6.84615H1.75Z" stroke="#BF262A" stroke-width="1.5" stroke-linecap="round" stroke-linejoin="round"/>
</svg>
