<svg width="19" height="19" viewBox="0 0 19 19" fill="none" xmlns="http://www.w3.org/2000/svg">
<path fill-rule="evenodd" clip-rule="evenodd" d="M18.4395 3.51614C18.6048 3.58228 18.7466 3.69656 18.8465 3.84423C18.9464 3.99191 18.9999 4.1662 19 4.34464V14.6556C18.9999 14.834 18.9464 15.0083 18.8465 15.156C18.7466 15.3037 18.6048 15.418 18.4395 15.4841L9.83012 18.9362C9.61782 19.0213 9.38099 19.0213 9.16869 18.9362L0.559312 15.4841C0.394213 15.4178 0.252706 15.3034 0.153022 15.1558C0.0533373 15.0081 4.13962e-05 14.8339 0 14.6556L0 4.34464C4.13962e-05 4.16634 0.0533373 3.99214 0.153022 3.84448C0.252706 3.69682 0.394213 3.58246 0.559312 3.51614L8.83856 0.196203L8.85044 0.192632L9.16869 0.0640721C9.38134 -0.0213574 9.61866 -0.0213574 9.83131 0.0640721L10.1508 0.192632L10.1626 0.196203L18.4395 3.51614ZM12.3548 2.35791L5.04688 5.28741L2.19212 4.14346L1.1875 4.547V5.02315L8.90625 8.1181V17.5482L9.5 17.7863L10.0938 17.5482V8.11929L17.8125 5.02434V4.54819L16.8079 4.14465L9.5 7.07296L6.64525 5.92902L13.9531 2.99952L12.3548 2.35791Z" fill="#BF262A"/>
</svg>
