<svg width="21" height="21" viewBox="0 0 21 21" fill="none" xmlns="http://www.w3.org/2000/svg">
<path d="M18.6667 18.9H2.33333V7.35H18.6667M15.1667 0V2.1H5.83333V0H3.5V2.1H2.33333C1.03833 2.1 0 3.0345 0 4.2V18.9C0 19.457 0.245832 19.9911 0.683417 20.3849C1.121 20.7787 1.71449 21 2.33333 21H18.6667C19.2855 21 19.879 20.7787 20.3166 20.3849C20.7542 19.9911 21 19.457 21 18.9V4.2C21 3.64305 20.7542 3.1089 20.3166 2.71508C19.879 2.32125 19.2855 2.1 18.6667 2.1H17.5V0M16.3333 11.55H10.5V16.8H16.3333V11.55Z" fill="#BF262A"/>
</svg>
