<svg width="22" height="21" viewBox="0 0 22 21" fill="none" xmlns="http://www.w3.org/2000/svg">
<g clip-path="url(#clip0_68_185)">
<path d="M18.5987 2.47916H3.40132C2.14232 2.47916 1.12171 3.45853 1.12171 4.66666V17.7917C1.12171 18.9998 2.14232 19.9792 3.40132 19.9792H18.5987C19.8577 19.9792 20.8783 18.9998 20.8783 17.7917V4.66666C20.8783 3.45853 19.8577 2.47916 18.5987 2.47916Z" stroke="#BF262A" stroke-width="1.5" stroke-linejoin="round"/>
<path d="M12.8997 10.5C13.5292 10.5 14.0395 10.0103 14.0395 9.40625C14.0395 8.80219 13.5292 8.3125 12.8997 8.3125C12.2702 8.3125 11.7599 8.80219 11.7599 9.40625C11.7599 10.0103 12.2702 10.5 12.8997 10.5Z" fill="#BF262A"/>
<path d="M16.699 10.5C17.3285 10.5 17.8388 10.0103 17.8388 9.40625C17.8388 8.80219 17.3285 8.3125 16.699 8.3125C16.0695 8.3125 15.5592 8.80219 15.5592 9.40625C15.5592 10.0103 16.0695 10.5 16.699 10.5Z" fill="#BF262A"/>
<path d="M12.8997 14.1458C13.5292 14.1458 14.0395 13.6562 14.0395 13.0521C14.0395 12.448 13.5292 11.9583 12.8997 11.9583C12.2702 11.9583 11.7599 12.448 11.7599 13.0521C11.7599 13.6562 12.2702 14.1458 12.8997 14.1458Z" fill="#BF262A"/>
<path d="M16.699 14.1458C17.3285 14.1458 17.8388 13.6562 17.8388 13.0521C17.8388 12.448 17.3285 11.9583 16.699 11.9583C16.0695 11.9583 15.5592 12.448 15.5592 13.0521C15.5592 13.6562 16.0695 14.1458 16.699 14.1458Z" fill="#BF262A"/>
<path d="M5.30099 14.1458C5.93048 14.1458 6.44079 13.6562 6.44079 13.0521C6.44079 12.448 5.93048 11.9583 5.30099 11.9583C4.67149 11.9583 4.16118 12.448 4.16118 13.0521C4.16118 13.6562 4.67149 14.1458 5.30099 14.1458Z" fill="#BF262A"/>
<path d="M9.10033 14.1458C9.72982 14.1458 10.2401 13.6562 10.2401 13.0521C10.2401 12.448 9.72982 11.9583 9.10033 11.9583C8.47083 11.9583 7.96053 12.448 7.96053 13.0521C7.96053 13.6562 8.47083 14.1458 9.10033 14.1458Z" fill="#BF262A"/>
<path d="M5.30099 17.7917C5.93048 17.7917 6.44079 17.302 6.44079 16.6979C6.44079 16.0938 5.93048 15.6042 5.30099 15.6042C4.67149 15.6042 4.16118 16.0938 4.16118 16.6979C4.16118 17.302 4.67149 17.7917 5.30099 17.7917Z" fill="#BF262A"/>
<path d="M9.10033 17.7917C9.72982 17.7917 10.2401 17.302 10.2401 16.6979C10.2401 16.0938 9.72982 15.6042 9.10033 15.6042C8.47083 15.6042 7.96053 16.0938 7.96053 16.6979C7.96053 17.302 8.47083 17.7917 9.10033 17.7917Z" fill="#BF262A"/>
<path d="M12.8997 17.7917C13.5292 17.7917 14.0395 17.302 14.0395 16.6979C14.0395 16.0938 13.5292 15.6042 12.8997 15.6042C12.2702 15.6042 11.7599 16.0938 11.7599 16.6979C11.7599 17.302 12.2702 17.7917 12.8997 17.7917Z" fill="#BF262A"/>
<path d="M4.92105 1.02084V2.47918M17.0789 1.02084V2.47918" stroke="#BF262A" stroke-width="1.5" stroke-linecap="round" stroke-linejoin="round"/>
<path d="M20.8783 6.125H1.12171" stroke="#BF262A" stroke-width="1.5" stroke-linejoin="round"/>
</g>
<defs>
<clipPath id="clip0_68_185">
<rect width="22" height="21" fill="white"/>
</clipPath>
</defs>
</svg>
