<svg width="21" height="20" viewBox="0 0 21 20" fill="none" xmlns="http://www.w3.org/2000/svg">
<path d="M0 18.9286C0 19.2127 0.118526 19.4853 0.329505 19.6862C0.540483 19.8871 0.826631 20 1.125 20H19.875C20.1734 20 20.4595 19.8871 20.6705 19.6862C20.8815 19.4853 21 19.2127 21 18.9286V6.42857H0V18.9286ZM15 8.03571C15 7.98835 15.0198 7.94293 15.0549 7.90945C15.0901 7.87596 15.1378 7.85714 15.1875 7.85714H17.0625C17.1122 7.85714 17.1599 7.87596 17.1951 7.90945C17.2302 7.94293 17.25 7.98835 17.25 8.03571V9.82143C17.25 9.86879 17.2302 9.91421 17.1951 9.9477C17.1599 9.98119 17.1122 10 17.0625 10H15.1875C15.1378 10 15.0901 9.98119 15.0549 9.9477C15.0198 9.91421 15 9.86879 15 9.82143V8.03571ZM15 11.6071C15 11.5598 15.0198 11.5144 15.0549 11.4809C15.0901 11.4474 15.1378 11.4286 15.1875 11.4286H17.0625C17.1122 11.4286 17.1599 11.4474 17.1951 11.4809C17.2302 11.5144 17.25 11.5598 17.25 11.6071V13.3929C17.25 13.4402 17.2302 13.4856 17.1951 13.5191C17.1599 13.5526 17.1122 13.5714 17.0625 13.5714H15.1875C15.1378 13.5714 15.0901 13.5526 15.0549 13.5191C15.0198 13.4856 15 13.4402 15 13.3929V11.6071ZM11.25 8.03571C11.25 7.98835 11.2698 7.94293 11.3049 7.90945C11.3401 7.87596 11.3878 7.85714 11.4375 7.85714H13.3125C13.3622 7.85714 13.4099 7.87596 13.4451 7.90945C13.4802 7.94293 13.5 7.98835 13.5 8.03571V9.82143C13.5 9.86879 13.4802 9.91421 13.4451 9.9477C13.4099 9.98119 13.3622 10 13.3125 10H11.4375C11.3878 10 11.3401 9.98119 11.3049 9.9477C11.2698 9.91421 11.25 9.86879 11.25 9.82143V8.03571ZM11.25 11.6071C11.25 11.5598 11.2698 11.5144 11.3049 11.4809C11.3401 11.4474 11.3878 11.4286 11.4375 11.4286H13.3125C13.3622 11.4286 13.4099 11.4474 13.4451 11.4809C13.4802 11.5144 13.5 11.5598 13.5 11.6071V13.3929C13.5 13.4402 13.4802 13.4856 13.4451 13.5191C13.4099 13.5526 13.3622 13.5714 13.3125 13.5714H11.4375C11.3878 13.5714 11.3401 13.5526 11.3049 13.5191C11.2698 13.4856 11.25 13.4402 11.25 13.3929V11.6071ZM11.25 15.1786C11.25 15.1312 11.2698 15.0858 11.3049 15.0523C11.3401 15.0188 11.3878 15 11.4375 15H13.3125C13.3622 15 13.4099 15.0188 13.4451 15.0523C13.4802 15.0858 13.5 15.1312 13.5 15.1786V16.9643C13.5 17.0116 13.4802 17.0571 13.4451 17.0906C13.4099 17.124 13.3622 17.1429 13.3125 17.1429H11.4375C11.3878 17.1429 11.3401 17.124 11.3049 17.0906C11.2698 17.0571 11.25 17.0116 11.25 16.9643V15.1786ZM7.5 11.6071C7.5 11.5598 7.51975 11.5144 7.55492 11.4809C7.59008 11.4474 7.63777 11.4286 7.6875 11.4286H9.5625C9.61223 11.4286 9.65992 11.4474 9.69508 11.4809C9.73025 11.5144 9.75 11.5598 9.75 11.6071V13.3929C9.75 13.4402 9.73025 13.4856 9.69508 13.5191C9.65992 13.5526 9.61223 13.5714 9.5625 13.5714H7.6875C7.63777 13.5714 7.59008 13.5526 7.55492 13.5191C7.51975 13.4856 7.5 13.4402 7.5 13.3929V11.6071ZM7.5 15.1786C7.5 15.1312 7.51975 15.0858 7.55492 15.0523C7.59008 15.0188 7.63777 15 7.6875 15H9.5625C9.61223 15 9.65992 15.0188 9.69508 15.0523C9.73025 15.0858 9.75 15.1312 9.75 15.1786V16.9643C9.75 17.0116 9.73025 17.0571 9.69508 17.0906C9.65992 17.124 9.61223 17.1429 9.5625 17.1429H7.6875C7.63777 17.1429 7.59008 17.124 7.55492 17.0906C7.51975 17.0571 7.5 17.0116 7.5 16.9643V15.1786ZM3.75 11.6071C3.75 11.5598 3.76975 11.5144 3.80492 11.4809C3.84008 11.4474 3.88777 11.4286 3.9375 11.4286H5.8125C5.86223 11.4286 5.90992 11.4474 5.94508 11.4809C5.98025 11.5144 6 11.5598 6 11.6071V13.3929C6 13.4402 5.98025 13.4856 5.94508 13.5191C5.90992 13.5526 5.86223 13.5714 5.8125 13.5714H3.9375C3.88777 13.5714 3.84008 13.5526 3.80492 13.5191C3.76975 13.4856 3.75 13.4402 3.75 13.3929V11.6071ZM3.75 15.1786C3.75 15.1312 3.76975 15.0858 3.80492 15.0523C3.84008 15.0188 3.88777 15 3.9375 15H5.8125C5.86223 15 5.90992 15.0188 5.94508 15.0523C5.98025 15.0858 6 15.1312 6 15.1786V16.9643C6 17.0116 5.98025 17.0571 5.94508 17.0906C5.90992 17.124 5.86223 17.1429 5.8125 17.1429H3.9375C3.88777 17.1429 3.84008 17.124 3.80492 17.0906C3.76975 17.0571 3.75 17.0116 3.75 16.9643V15.1786ZM19.875 1.42857H17.2537V0H15.0037V1.42857H5.99625V0H3.74625V1.42857H1.125C0.977825 1.42739 0.83186 1.45396 0.695515 1.50675C0.559169 1.55953 0.435137 1.63749 0.330565 1.73612C0.225994 1.83476 0.142949 1.95213 0.0862151 2.08147C0.0294815 2.21081 0.000180323 2.34956 0 2.48973V5H21V2.48973C20.9998 2.34956 20.9705 2.21081 20.9138 2.08147C20.857 1.95213 20.774 1.83476 20.6694 1.73612C20.5649 1.63749 20.4408 1.55953 20.3045 1.50675C20.1681 1.45396 20.0222 1.42739 19.875 1.42857Z" fill="#BF262A"/>
</svg>
