<svg width="27" height="20" viewBox="0 0 27 20" fill="none" xmlns="http://www.w3.org/2000/svg">
<path d="M2.45455 0H19.6364V5H23.3182L27 10V16.25H24.5455C24.5455 17.2446 24.1576 18.1984 23.4671 18.9017C22.7766 19.6049 21.8401 20 20.8636 20C19.8872 20 18.9507 19.6049 18.2602 18.9017C17.5697 18.1984 17.1818 17.2446 17.1818 16.25H9.81818C9.81818 17.2446 9.43028 18.1984 8.7398 18.9017C8.04933 19.6049 7.11284 20 6.13636 20C5.15988 20 4.2234 19.6049 3.53293 18.9017C2.84245 18.1984 2.45455 17.2446 2.45455 16.25H0V2.5C0 1.83696 0.258603 1.20107 0.71892 0.732233C1.17924 0.263392 1.80356 0 2.45455 0ZM19.6364 6.875V10H25.1223L22.7045 6.875H19.6364ZM6.13636 14.375C5.64812 14.375 5.17988 14.5725 4.83464 14.9242C4.48941 15.2758 4.29545 15.7527 4.29545 16.25C4.29545 16.7473 4.48941 17.2242 4.83464 17.5758C5.17988 17.9275 5.64812 18.125 6.13636 18.125C6.6246 18.125 7.09285 17.9275 7.43808 17.5758C7.78332 17.2242 7.97727 16.7473 7.97727 16.25C7.97727 15.7527 7.78332 15.2758 7.43808 14.9242C7.09285 14.5725 6.6246 14.375 6.13636 14.375ZM20.8636 14.375C20.3754 14.375 19.9072 14.5725 19.5619 14.9242C19.2167 15.2758 19.0227 15.7527 19.0227 16.25C19.0227 16.7473 19.2167 17.2242 19.5619 17.5758C19.9072 17.9275 20.3754 18.125 20.8636 18.125C21.3519 18.125 21.8201 17.9275 22.1654 17.5758C22.5106 17.2242 22.7045 16.7473 22.7045 16.25C22.7045 15.7527 22.5106 15.2758 22.1654 14.9242C21.8201 14.5725 21.3519 14.375 20.8636 14.375ZM8.59091 12.5L15.9545 5L14.2241 3.225L8.59091 8.9625L6.02591 6.35L4.29545 8.125L8.59091 12.5Z" fill="#BF262A"/>
</svg>
