<svg width="27" height="20" viewBox="0 0 27 20" fill="none" xmlns="http://www.w3.org/2000/svg">
<path d="M20.8636 18.125C20.3754 18.125 19.9072 17.9275 19.5619 17.5758C19.2167 17.2242 19.0227 16.7473 19.0227 16.25C19.0227 15.7527 19.2167 15.2758 19.5619 14.9242C19.9072 14.5725 20.3754 14.375 20.8636 14.375C21.3519 14.375 21.8201 14.5725 22.1654 14.9242C22.5106 15.2758 22.7045 15.7527 22.7045 16.25C22.7045 16.7473 22.5106 17.2242 22.1654 17.5758C21.8201 17.9275 21.3519 18.125 20.8636 18.125ZM22.7045 6.875L25.11 10H19.6364V6.875M6.13636 18.125C5.64812 18.125 5.17988 17.9275 4.83464 17.5758C4.48941 17.2242 4.29545 16.7473 4.29545 16.25C4.29545 15.7527 4.48941 15.2758 4.83464 14.9242C5.17988 14.5725 5.64812 14.375 6.13636 14.375C6.6246 14.375 7.09285 14.5725 7.43808 14.9242C7.78332 15.2758 7.97727 15.7527 7.97727 16.25C7.97727 16.7473 7.78332 17.2242 7.43808 17.5758C7.09285 17.9275 6.6246 18.125 6.13636 18.125ZM23.3182 5H19.6364V0H2.45455C1.09227 0 0 1.1125 0 2.5V16.25H2.45455C2.45455 17.2446 2.84245 18.1984 3.53293 18.9017C4.2234 19.6049 5.15988 20 6.13636 20C7.11284 20 8.04933 19.6049 8.7398 18.9017C9.43028 18.1984 9.81818 17.2446 9.81818 16.25H17.1818C17.1818 17.2446 17.5697 18.1984 18.2602 18.9017C18.9507 19.6049 19.8872 20 20.8636 20C21.8401 20 22.7766 19.6049 23.4671 18.9017C24.1576 18.1984 24.5455 17.2446 24.5455 16.25H27V10L23.3182 5Z" fill="#BF262A"/>
</svg>
