<svg width="29" height="20" viewBox="0 0 29 20" fill="none" xmlns="http://www.w3.org/2000/svg">
<path d="M3.35789 11.875L2.44211 10H8.85263L8.12 8.125H2.13684L1.22105 6.25H10.7453L10.0126 4.375H1.05011L0 2.5H4.57895C4.57895 1.83696 4.83624 1.20107 5.29422 0.732233C5.75221 0.263392 6.37337 0 7.02105 0H21.6737V5H25.3368L29 10V16.25H26.5579C26.5579 17.2446 26.172 18.1984 25.485 18.9017C24.798 19.6049 23.8663 20 22.8947 20C21.9232 20 20.9915 19.6049 20.3045 18.9017C19.6175 18.1984 19.2316 17.2446 19.2316 16.25H14.3474C14.3474 17.2446 13.9614 18.1984 13.2745 18.9017C12.5875 19.6049 11.6557 20 10.6842 20C9.71268 20 8.78094 19.6049 8.09397 18.9017C7.40699 18.1984 7.02105 17.2446 7.02105 16.25H4.57895V11.875H3.35789ZM22.8947 18.125C23.3805 18.125 23.8464 17.9275 24.1899 17.5758C24.5333 17.2242 24.7263 16.7473 24.7263 16.25C24.7263 15.7527 24.5333 15.2758 24.1899 14.9242C23.8464 14.5725 23.3805 14.375 22.8947 14.375C22.409 14.375 21.9431 14.5725 21.5996 14.9242C21.2561 15.2758 21.0632 15.7527 21.0632 16.25C21.0632 16.7473 21.2561 17.2242 21.5996 17.5758C21.9431 17.9275 22.409 18.125 22.8947 18.125ZM24.7263 6.875H21.6737V10H27.1196L24.7263 6.875ZM10.6842 18.125C11.17 18.125 11.6358 17.9275 11.9793 17.5758C12.3228 17.2242 12.5158 16.7473 12.5158 16.25C12.5158 15.7527 12.3228 15.2758 11.9793 14.9242C11.6358 14.5725 11.17 14.375 10.6842 14.375C10.1984 14.375 9.73258 14.5725 9.38909 14.9242C9.0456 15.2758 8.85263 15.7527 8.85263 16.25C8.85263 16.7473 9.0456 17.2242 9.38909 17.5758C9.73258 17.9275 10.1984 18.125 10.6842 18.125Z" fill="#BF262A"/>
</svg>
