<svg width="20" height="17" viewBox="0 0 20 17" fill="none" xmlns="http://www.w3.org/2000/svg">
<mask id="mask0_68_183" style="mask-type:luminance" maskUnits="userSpaceOnUse" x="0" y="0" width="20" height="17">
<path d="M1 1.9C1 1.66131 1.09482 1.43239 1.2636 1.2636C1.43239 1.09482 1.66131 1 1.9 1H18.1C18.3387 1 18.5676 1.09482 18.7364 1.2636C18.9052 1.43239 19 1.66131 19 1.9V14.5C19 14.7387 18.9052 14.9676 18.7364 15.1364C18.5676 15.3052 18.3387 15.4 18.1 15.4H1.9C1.66131 15.4 1.43239 15.3052 1.2636 15.1364C1.09482 14.9676 1 14.7387 1 14.5V1.9Z" fill="white" stroke="white" stroke-width="2" stroke-linejoin="round"/>
<path d="M1 4.59999H19" stroke="black" stroke-width="2" stroke-linecap="square" stroke-linejoin="round"/>
<path d="M11.35 11.8H15.4" stroke="black" stroke-width="2" stroke-linecap="round" stroke-linejoin="round"/>
<path d="M19 1.89999V9.09999M1 1.89999V9.09999" stroke="white" stroke-width="2" stroke-linecap="round" stroke-linejoin="round"/>
</mask>
<g mask="url(#mask0_68_183)">
<path d="M-0.800018 0.100006H20.8V16.75H-0.800018V0.100006Z" fill="#BF262A"/>
</g>
</svg>
