<svg width="18" height="18" viewBox="0 0 18 18" fill="none" xmlns="http://www.w3.org/2000/svg">
<path d="M11.5045 0.00154525C11.365 0.00708324 11.2304 0.0320042 11.0902 0.0666166L1.60777 2.35934C0.486124 2.63209 -0.215603 3.75492 0.0599262 4.86874L1.38944 10.2558C1.47001 10.5767 1.62687 10.8738 1.8469 11.1221C2.06693 11.3705 2.34372 11.5629 2.65408 11.6832V10.3853C2.65408 8.47674 4.21867 6.92403 6.14179 6.92403H14.9266L13.6187 1.58056C13.5031 1.11608 13.2295 0.705389 12.8443 0.417747C12.459 0.130105 11.9863 -0.016891 11.5045 0.00154525ZM12.3541 2.98721L12.9212 5.34501L10.567 5.90712L9.97827 3.57078L12.3541 2.98721ZM6.14179 8.30853C4.98666 8.30853 4.04917 9.23891 4.04917 10.3853V15.9233C4.04917 17.0696 4.98666 18 6.14179 18H15.9074C17.0625 18 18 17.0696 18 15.9233V10.3853C18 9.23891 17.0625 8.30853 15.9074 8.30853H6.14179ZM6.14179 9.41197H15.9074C16.4452 9.41197 16.8881 9.85155 16.8881 10.3853V11.0775H5.16105V10.3853C5.16105 9.85155 5.60399 9.41197 6.14179 9.41197ZM5.16105 13.1543H16.8881V15.9233C16.8881 16.457 16.4452 16.8966 15.9074 16.8966H6.14179C5.88213 16.8951 5.63353 16.7921 5.44992 16.6099C5.26631 16.4277 5.16251 16.1809 5.16105 15.9233V13.1543Z" fill="#BF262A"/>
</svg>
