<svg width="20" height="16" viewBox="0 0 20 16" fill="none" xmlns="http://www.w3.org/2000/svg">
<path d="M17 0C17.7956 0 18.5587 0.316071 19.1213 0.87868C19.6839 1.44129 20 2.20435 20 3V13C20 13.7956 19.6839 14.5587 19.1213 15.1213C18.5587 15.6839 17.7956 16 17 16H3C2.20435 16 1.44129 15.6839 0.87868 15.1213C0.316071 14.5587 0 13.7956 0 13V3C0 2.20435 0.316071 1.44129 0.87868 0.87868C1.44129 0.316071 2.20435 0 3 0H17ZM18 6H2V13C2.00003 13.2449 2.08996 13.4813 2.25272 13.6644C2.41547 13.8474 2.63975 13.9643 2.883 13.993L3 14H17C17.2449 14 17.4813 13.91 17.6644 13.7473C17.8474 13.5845 17.9643 13.3603 17.993 13.117L18 13V6ZM15 9C15.2549 9.00028 15.5 9.09788 15.6854 9.27285C15.8707 9.44782 15.9822 9.68695 15.9972 9.94139C16.0121 10.1958 15.9293 10.4464 15.7657 10.6418C15.6021 10.8373 15.3701 10.9629 15.117 10.993L15 11H12C11.7451 10.9997 11.5 10.9021 11.3146 10.7272C11.1293 10.5522 11.0178 10.313 11.0028 10.0586C10.9879 9.80416 11.0707 9.55362 11.2343 9.35817C11.3979 9.16271 11.6299 9.0371 11.883 9.007L12 9H15ZM17 2H3C2.73478 2 2.48043 2.10536 2.29289 2.29289C2.10536 2.48043 2 2.73478 2 3V4H18V3C18 2.73478 17.8946 2.48043 17.7071 2.29289C17.5196 2.10536 17.2652 2 17 2Z" fill="#BF262A"/>
</svg>
