<svg width="23" height="21" viewBox="0 0 23 21" fill="none" xmlns="http://www.w3.org/2000/svg">
<path d="M20.1536 13.125H8.44819L8.70953 14.4375H19.4276C20.0426 14.4375 20.4984 15.0241 20.3621 15.64L20.1418 16.6357C20.8882 17.0079 21.4028 17.7937 21.4028 18.7031C21.4028 19.9829 20.3838 21.0182 19.1338 20.9997C17.9429 20.9822 16.9635 19.9895 16.9314 18.7666C16.9138 18.0985 17.1744 17.4931 17.6024 17.0625H9.23099C9.64535 17.4794 9.90278 18.0602 9.90278 18.7031C9.90278 20.0079 8.8435 21.0587 7.56005 20.9975C6.42044 20.9431 5.49361 19.9973 5.43371 18.827C5.38747 17.9233 5.85043 17.1267 6.5538 16.7112L3.7488 2.625H0.958333C0.429054 2.625 0 2.18429 0 1.64062V0.984375C0 0.440713 0.429054 0 0.958333 0H5.05237C5.50762 0 5.90002 0.328986 5.99126 0.78709L6.35726 2.625H22.0413C22.6562 2.625 23.112 3.21156 22.9758 3.82754L21.0881 12.3588C20.989 12.807 20.6011 13.125 20.1536 13.125ZM16.2917 6.89062H14.375V5.25C14.375 4.88754 14.089 4.59375 13.7361 4.59375H13.0972C12.7444 4.59375 12.4583 4.88754 12.4583 5.25V6.89062H10.5417C10.1888 6.89062 9.90278 7.18442 9.90278 7.54687V8.20312C9.90278 8.56558 10.1888 8.85937 10.5417 8.85937H12.4583V10.5C12.4583 10.8625 12.7444 11.1562 13.0972 11.1562H13.7361C14.089 11.1562 14.375 10.8625 14.375 10.5V8.85937H16.2917C16.6445 8.85937 16.9306 8.56558 16.9306 8.20312V7.54687C16.9306 7.18442 16.6445 6.89062 16.2917 6.89062Z" fill="#BF262A"/>
</svg>
