<svg width="23" height="20" viewBox="0 0 23 20" fill="none" xmlns="http://www.w3.org/2000/svg">
<path d="M20.1536 12.5H8.44819L8.70954 13.75H19.4276C20.0426 13.75 20.4984 14.3086 20.3621 14.8953L20.1418 15.8436C20.8882 16.198 21.4028 16.9464 21.4028 17.8125C21.4028 19.0313 20.3838 20.0173 19.1338 19.9998C17.9429 19.983 16.9635 19.0376 16.9314 17.8729C16.9138 17.2367 17.1744 16.6601 17.6024 16.25H9.23099C9.64535 16.6471 9.90278 17.2002 9.90278 17.8125C9.90278 19.0552 8.8435 20.0559 7.56005 19.9976C6.42044 19.9458 5.49361 19.045 5.43371 17.9305C5.38747 17.0698 5.85043 16.3112 6.5538 15.9154L3.7488 2.5H0.958334C0.429054 2.5 0 2.08027 0 1.5625V0.9375C0 0.419726 0.429054 0 0.958334 0H5.05237C5.50762 0 5.90002 0.31332 5.99126 0.749609L6.35727 2.5H22.0413C22.6562 2.5 23.1121 3.05863 22.9758 3.64527L21.0881 11.7703C20.989 12.1971 20.6011 12.5 20.1536 12.5ZM16.0932 7.5H14.375V5.15625C14.375 4.89738 14.1605 4.6875 13.8958 4.6875H12.9375C12.6729 4.6875 12.4583 4.89738 12.4583 5.15625V7.5H10.7402C10.3133 7.5 10.0995 8.00492 10.4014 8.30019L13.0779 10.9185C13.265 11.1016 13.5684 11.1016 13.7555 10.9185L16.432 8.30019C16.7339 8.00492 16.5201 7.5 16.0932 7.5Z" fill="#BF262A"/>
</svg>
