<svg width="23" height="20" viewBox="0 0 23 20" fill="none" xmlns="http://www.w3.org/2000/svg">
<path d="M7.95048 20C8.87399 20 9.62264 19.2538 9.62264 18.3333C9.62264 17.4128 8.87399 16.6667 7.95048 16.6667C7.02697 16.6667 6.27832 17.4128 6.27832 18.3333C6.27832 19.2538 7.02697 20 7.95048 20Z" fill="#BF262A"/>
<path d="M19.99 20.0002C20.9135 20.0002 21.6621 19.254 21.6621 18.3336C21.6621 17.4131 20.9135 16.6669 19.99 16.6669C19.0665 16.6669 18.3178 17.4131 18.3178 18.3336C18.3178 19.254 19.0665 20.0002 19.99 20.0002Z" fill="#BF262A"/>
<path d="M22.7115 2.98842C22.5927 2.84371 22.443 2.72716 22.2733 2.64723C22.1036 2.5673 21.9182 2.52599 21.7305 2.52632H5.64416L5.32016 0.69579C5.28561 0.500804 5.18317 0.324176 5.03084 0.19693C4.8785 0.0696843 4.68601 -4.16008e-05 4.48717 1.86212e-08H1.10447C0.880178 1.86212e-08 0.665077 0.0887217 0.506482 0.246647C0.347887 0.404572 0.258789 0.618765 0.258789 0.842105C0.258789 1.06545 0.347887 1.27964 0.506482 1.43756C0.665077 1.59549 0.880178 1.68421 1.10447 1.68421H3.77786L6.19121 15.3042C6.22576 15.4992 6.32819 15.6758 6.48053 15.8031C6.63287 15.9303 6.82536 16 7.0242 16H20.555C20.7793 16 20.9944 15.9113 21.153 15.7534C21.3116 15.5954 21.4007 15.3812 21.4007 15.1579C21.4007 14.9346 21.3116 14.7204 21.153 14.5624C20.9944 14.4045 20.7793 14.3158 20.555 14.3158H7.73351L7.43541 12.6316H20.2083C20.5016 12.6312 20.7857 12.53 21.0126 12.3449C21.2395 12.1599 21.3953 11.9025 21.4535 11.6163L22.9758 4.03737C23.0124 3.85395 23.0078 3.66471 22.9621 3.48331C22.9164 3.30191 22.8308 3.13288 22.7115 2.98842Z" fill="#BF262A"/>
</svg>
