<svg width="13" height="23" viewBox="0 0 13 23" fill="none" xmlns="http://www.w3.org/2000/svg">
<path d="M12.4267 1.01069C12.5035 1.34764 12.445 1.70168 12.2641 1.99492L2.80338 11.5L12.8044 21.0051C12.9853 21.2983 13.0438 21.6524 12.967 21.9893C12.8903 22.3263 12.6847 22.6185 12.3953 22.8018C12.106 22.9851 11.7566 23.0444 11.4242 22.9666C11.0917 22.8888 10.8033 22.6804 10.6225 22.3872L0.195558 12.191C0.0677618 11.9838 0 11.7444 0 11.5C0 11.2556 0.0677618 11.0162 0.195558 10.8089L10.0822 0.612824C10.263 0.31958 10.5514 0.111153 10.8839 0.0333951C11.2163 -0.044363 11.5657 0.0149171 11.855 0.198195C12.1444 0.381472 12.35 0.673734 12.4267 1.01069Z" fill="#D3D3D3"/>
</svg>
