<svg width="9" height="16" viewBox="0 0 9 16" fill="none" xmlns="http://www.w3.org/2000/svg">
<path d="M8.60313 0.703086C8.65625 0.937487 8.61576 1.18378 8.49056 1.38777L1.9408 8L8.86461 14.6122C8.98981 14.8162 9.0303 15.0625 8.97719 15.2969C8.92407 15.5313 8.78169 15.7346 8.58137 15.8621C8.38106 15.9896 8.13921 16.0309 7.90903 15.9768C7.67886 15.9227 7.47921 15.7777 7.35401 15.5737L0.135386 8.48073C0.046912 8.33657 0 8.17 0 8C0 7.83 0.046912 7.66343 0.135386 7.51927L6.97996 0.426313C7.10516 0.222317 7.3048 0.077324 7.53498 0.0232314C7.76515 -0.0308612 8.007 0.0103771 8.20732 0.137875C8.40764 0.265372 8.55002 0.468685 8.60313 0.703086Z" fill="#BF262A"/>
</svg>
