<svg width="13" height="24" viewBox="0 0 13 24" fill="none" xmlns="http://www.w3.org/2000/svg">
<path fill-rule="evenodd" clip-rule="evenodd" d="M0.219267 2.32743C0.0165017 1.98531 -0.0490798 1.57226 0.0369464 1.17915C0.122973 0.786031 0.353561 0.445055 0.677986 0.231229C1.00241 0.0174034 1.3941 -0.0517574 1.76688 0.0389613C2.13966 0.12968 2.46299 0.372847 2.66576 0.714969L12.7807 11.2908C12.924 11.5325 13 11.8119 13 12.097C13 12.3821 12.924 12.6615 12.7807 12.9033L3.12409 23.285C2.92132 23.6272 2.59799 23.8703 2.22521 23.961C1.85243 24.0518 1.46074 23.9826 1.13632 23.7688C0.811891 23.5549 0.581302 23.214 0.495276 22.8209C0.409249 22.4277 0.474833 22.0147 0.677598 21.6726L5.26719 16.8848L9.85677 12.097L0.219267 2.32743Z" fill="#D3D3D3"/>
</svg>
