<svg width="9" height="16" viewBox="0 0 9 16" fill="none" xmlns="http://www.w3.org/2000/svg">
<path fill-rule="evenodd" clip-rule="evenodd" d="M0.151801 1.55162C0.0114243 1.32354 -0.0339783 1.04817 0.0255783 0.786097C0.0851349 0.524021 0.244773 0.296704 0.469375 0.154153C0.693977 0.0116023 0.965144 -0.0345049 1.22322 0.0259742C1.4813 0.0864533 1.70515 0.248565 1.84553 0.476646L8.8482 7.52718C8.9474 7.68836 9 7.87461 9 8.06468C9 8.25475 8.9474 8.44099 8.8482 8.60217L2.16283 15.5234C2.02245 15.7514 1.79861 15.9135 1.54053 15.974C1.28245 16.0345 1.01128 15.9884 0.78668 15.8458C0.562078 15.7033 0.40244 15.476 0.342883 15.2139C0.283326 14.9518 0.32873 14.6765 0.469107 14.4484L3.64651 11.2565L6.82392 8.06468L0.151801 1.55162Z" fill="#BF262A"/>
</svg>
