<svg width="33" height="22" viewBox="0 0 33 22" fill="none" xmlns="http://www.w3.org/2000/svg">
<path opacity="0.3" d="M26.125 11H24.0625V10.3125C24.0625 6.14625 20.6663 2.75 16.5 2.75C14.025 2.75 11.8387 3.96 10.45 5.8025C13.9425 6.765 16.5 9.955 16.5 13.75H13.75C13.75 10.7112 11.2887 8.25 8.25 8.25C5.21125 8.25 2.75 10.7112 2.75 13.75C2.75 16.7887 5.21125 19.25 8.25 19.25H26.125C28.3937 19.25 30.25 17.3938 30.25 15.125C30.25 12.8562 28.3937 11 26.125 11Z" fill="#BF262A"/>
<path d="M26.6063 8.305C26.1444 5.96436 24.8842 3.85668 23.041 2.34196C21.1977 0.827245 18.8858 -0.000539333 16.5 2.63638e-07C14.6153 0.000516298 12.7669 0.518902 11.1568 1.49855C9.54673 2.47819 8.23677 3.88142 7.37 5.555C5.34683 5.77082 3.47491 6.72713 2.11437 8.23998C0.753817 9.75283 0.000737762 11.7153 0 13.75C0 18.3013 3.69875 22 8.25 22H26.125C29.92 22 33 18.92 33 15.125C33 11.495 30.1812 8.5525 26.6063 8.305ZM26.125 19.25H8.25C5.21125 19.25 2.75 16.7887 2.75 13.75C2.75 10.7113 5.21125 8.25 8.25 8.25C11.2887 8.25 13.75 10.7113 13.75 13.75H16.5C16.5 9.955 13.9425 6.765 10.45 5.8025C11.8387 3.96 14.025 2.75 16.5 2.75C20.6663 2.75 24.0625 6.14625 24.0625 10.3125V11H26.125C28.3937 11 30.25 12.8562 30.25 15.125C30.25 17.3937 28.3937 19.25 26.125 19.25Z" fill="#BF262A"/>
</svg>
