<svg width="33" height="22" viewBox="0 0 33 22" fill="none" xmlns="http://www.w3.org/2000/svg">
<path d="M26.6063 8.305C26.1444 5.96436 24.8842 3.85668 23.041 2.34196C21.1977 0.827245 18.8858 -0.000539333 16.5 2.63638e-07C14.6153 0.000516298 12.7669 0.518902 11.1568 1.49855C9.54673 2.47819 8.23677 3.88142 7.37 5.555C5.34683 5.77082 3.47491 6.72713 2.11437 8.23998C0.753817 9.75283 0.000737762 11.7153 0 13.75C0 18.3013 3.69875 22 8.25 22H26.125C29.92 22 33 18.92 33 15.125C33 11.495 30.1812 8.5525 26.6063 8.305ZM26.125 19.25H8.48375C5.61 19.25 3.0525 17.1462 2.7775 14.2863C2.63988 12.8877 3.04312 11.4895 3.90437 10.379C4.76561 9.26848 6.01946 8.52998 7.40829 8.31524C8.79712 8.10048 10.2155 8.42579 11.3719 9.22431C12.5283 10.0228 13.335 11.2339 13.6262 12.6088C13.7638 13.2688 14.3138 13.75 14.9738 13.75C15.8125 13.75 16.5 12.9938 16.335 12.1688C16.0423 10.6635 15.335 9.26995 14.2927 8.14513C13.2505 7.02031 11.9148 6.20895 10.4363 5.8025C11.9488 3.795 14.41 2.54375 17.16 2.7775C21.12 3.12125 24.0487 6.655 24.0487 10.6287V11H25.9325C27.9263 11 29.7688 12.3337 30.1538 14.3C30.69 16.9262 28.6688 19.25 26.125 19.25Z" fill="#BF262A"/>
</svg>
