<svg width="24" height="24" viewBox="0 0 24 24" fill="none" xmlns="http://www.w3.org/2000/svg">
<g clip-path="url(#clip0_68_211)">
<path opacity="0.3" d="M6.56522 2.21738H21.7826V17.4348H6.56522V2.21738Z" fill="#BF262A"/>
<path d="M2.21737 23.9565H19.6087V21.7826H2.21737V4.39128H0.043457V21.7826C0.043457 22.9782 1.02172 23.9565 2.21737 23.9565ZM21.7826 0.043457H6.5652C5.36954 0.043457 4.39128 1.02172 4.39128 2.21737V17.4348C4.39128 18.6304 5.36954 19.6087 6.5652 19.6087H21.7826C22.9782 19.6087 23.9565 18.6304 23.9565 17.4348V2.21737C23.9565 1.02172 22.9782 0.043457 21.7826 0.043457ZM21.7826 17.4348H6.5652V2.21737H21.7826V17.4348Z" fill="#BF262A"/>
</g>
<defs>
<clipPath id="clip0_68_211">
<rect width="24" height="24" fill="white"/>
</clipPath>
</defs>
</svg>
