<svg width="24" height="24" viewBox="0 0 24 24" fill="none" xmlns="http://www.w3.org/2000/svg">
<path d="M7.2 19.2C6.54 19.2 5.9748 18.9648 5.5044 18.4944C5.034 18.024 4.7992 17.4592 4.8 16.8V2.4C4.8 1.74 5.0352 1.1748 5.5056 0.704402C5.976 0.234002 6.5408 -0.000797963 7.2 2.03735e-06H21.6C22.26 2.03735e-06 22.8252 0.235202 23.2956 0.705602C23.766 1.176 24.0008 1.7408 24 2.4V16.8C24 17.46 23.7648 18.0252 23.2944 18.4956C22.824 18.966 22.2592 19.2008 21.6 19.2H7.2ZM2.4 24C1.74 24 1.1748 23.7648 0.704402 23.2944C0.234002 22.824 -0.000797963 22.2592 2.03735e-06 21.6V4.8H2.4V21.6H19.2V24H2.4Z" fill="#BF262A"/>
</svg>
