<svg width="19" height="19" viewBox="0 0 19 19" fill="none" xmlns="http://www.w3.org/2000/svg">
<path d="M18.4935 2.88083C18.6519 2.72755 18.7782 2.54418 18.8652 2.3414C18.9521 2.13862 18.9979 1.92051 18.9999 1.69978C19.0019 1.47905 18.9601 1.26013 18.8769 1.05579C18.7937 0.851447 18.6707 0.665781 18.5152 0.509622C18.3597 0.353462 18.1747 0.229938 17.9711 0.146255C17.7674 0.0625724 17.5492 0.0204082 17.3292 0.0222215C17.1092 0.0240348 16.8917 0.0697897 16.6895 0.156817C16.4872 0.243844 16.3043 0.3704 16.1514 0.529102L9.50938 7.18974L2.8696 0.529102C2.71788 0.365773 2.53493 0.234772 2.33165 0.143913C2.12837 0.0530535 1.90893 0.00419699 1.68642 0.000258712C1.46391 -0.00367956 1.24289 0.0373812 1.03654 0.120991C0.830189 0.2046 0.642742 0.329045 0.485379 0.486903C0.328015 0.644761 0.203959 0.832795 0.120612 1.03979C0.0372641 1.24679 -0.00366804 1.46851 0.000257902 1.69172C0.00418385 1.91493 0.0528874 2.13505 0.143462 2.33897C0.234037 2.54289 0.364628 2.72642 0.527445 2.87861L7.16281 9.54147L0.523026 16.2021C0.230301 16.5172 0.0709388 16.934 0.0785137 17.3647C0.0860886 17.7954 0.260009 18.2063 0.563634 18.5109C0.867259 18.8155 1.27688 18.9899 1.7062 18.9975C2.13553 19.0051 2.55103 18.8453 2.86518 18.5516L9.50938 11.891L16.1492 18.5538C16.4633 18.8475 16.8788 19.0073 17.3081 18.9997C17.7375 18.9921 18.1471 18.8177 18.4507 18.5131C18.7543 18.2085 18.9283 17.7976 18.9358 17.3669C18.9434 16.9363 18.784 16.5195 18.4913 16.2043L11.856 9.54147L18.4935 2.88083Z" fill="#BF262A"/>
</svg>
