<svg width="25" height="17" viewBox="0 0 25 17" fill="none" xmlns="http://www.w3.org/2000/svg">
<path d="M24.898 8.0072C24.8607 7.92524 23.9777 5.95708 22.0274 3.99905C19.418 1.38327 16.1292 0 12.5008 0C8.8723 0 5.58352 1.38327 2.97708 3.99905C1.02679 5.95708 0.143864 7.92524 0.103548 8.0072C0.035266 8.16263 0 8.33064 0 8.50051C0 8.67038 0.035266 8.83839 0.103548 8.99381C0.140841 9.07679 1.02376 11.0439 2.97506 13.002C5.58352 15.6177 8.8723 17 12.5008 17C16.1292 17 19.418 15.6177 22.0234 13.002C23.9747 11.0439 24.8576 9.07679 24.8949 8.99381C24.9637 8.8386 24.9995 8.6707 25 8.50083C25.0005 8.33095 24.9658 8.16284 24.898 8.0072ZM20.2556 11.3465C18.0916 13.4857 15.4831 14.5714 12.5008 14.5714C9.51837 14.5714 6.90992 13.4857 4.74897 11.3455C3.89865 10.5008 3.16721 9.54343 2.57493 8.5C3.16738 7.45699 3.89881 6.50001 4.74897 5.65554C6.91092 3.51435 9.51837 2.42857 12.5008 2.42857C15.4831 2.42857 18.0906 3.51435 20.2525 5.65554C21.1028 6.49993 21.8342 7.45693 22.4266 8.5C21.8342 9.54337 21.1028 10.5007 20.2525 11.3455L20.2556 11.3465ZM12.5008 4.04762C11.6236 4.04762 10.7662 4.30875 10.0369 4.79798C9.30763 5.28721 8.73921 5.98258 8.40356 6.79615C8.0679 7.60971 7.98008 8.50494 8.15119 9.36862C8.32231 10.2323 8.74468 11.0256 9.36489 11.6483C9.98511 12.271 10.7753 12.695 11.6356 12.8668C12.4958 13.0386 13.3875 12.9505 14.1979 12.6135C15.0082 12.2765 15.7008 11.7058 16.1881 10.9736C16.6754 10.2414 16.9355 9.3806 16.9355 8.5C16.9342 7.31957 16.4665 6.18786 15.6351 5.35317C14.8037 4.51848 13.6765 4.04896 12.5008 4.04762ZM12.5008 10.5238C12.1021 10.5238 11.7123 10.4051 11.3808 10.1827C11.0493 9.96036 10.791 9.64428 10.6384 9.27448C10.4858 8.90468 10.4459 8.49776 10.5237 8.10517C10.6015 7.71259 10.7934 7.35199 11.0754 7.06895C11.3573 6.78592 11.7165 6.59317 12.1075 6.51508C12.4985 6.43699 12.9038 6.47707 13.2722 6.63024C13.6405 6.78342 13.9553 7.04282 14.1768 7.37563C14.3983 7.70845 14.5166 8.09973 14.5166 8.5C14.5166 9.03675 14.3042 9.55151 13.9261 9.93105C13.5481 10.3106 13.0354 10.5238 12.5008 10.5238Z" fill="#BF262A"/>
</svg>
