<svg width="23" height="20" viewBox="0 0 23 20" fill="none" xmlns="http://www.w3.org/2000/svg">
<path d="M11.3223 6.31579L14.6364 9.64211V9.47368C14.6364 8.63616 14.3059 7.83294 13.7177 7.24072C13.1296 6.6485 12.3318 6.31579 11.5 6.31579H11.3223ZM6.82682 7.1579L8.44727 8.78947C8.395 9.01053 8.36364 9.23158 8.36364 9.47368C8.36364 10.3112 8.69407 11.1144 9.28226 11.7067C9.87044 12.2989 10.6682 12.6316 11.5 12.6316C11.73 12.6316 11.96 12.6 12.1795 12.5474L13.8 14.1789C13.0995 14.5263 12.3259 14.7368 11.5 14.7368C10.1136 14.7368 8.78406 14.1823 7.80376 13.1953C6.82346 12.2083 6.27273 10.8696 6.27273 9.47368C6.27273 8.64211 6.48182 7.86316 6.82682 7.1579ZM1.04545 1.33684L3.42909 3.73684L3.89955 4.21053C2.17455 5.57895 0.815454 7.36842 0 9.47368C1.80864 14.0947 6.27273 17.3684 11.5 17.3684C13.1205 17.3684 14.6677 17.0526 16.0791 16.4842L16.5286 16.9263L19.5814 20L20.9091 18.6632L2.37318 0M11.5 4.21053C12.8864 4.21053 14.2159 4.76504 15.1962 5.75207C16.1765 6.7391 16.7273 8.07781 16.7273 9.47368C16.7273 10.1474 16.5914 10.8 16.3509 11.3895L19.4141 14.4737C20.9823 13.1579 22.2368 11.4316 23 9.47368C21.1914 4.85263 16.7273 1.57895 11.5 1.57895C10.0364 1.57895 8.63545 1.84211 7.31818 2.31579L9.58682 4.57895C10.1827 4.34737 10.8205 4.21053 11.5 4.21053Z" fill="#BF262A"/>
</svg>
