<svg width="24" height="17" viewBox="0 0 24 17" fill="none" xmlns="http://www.w3.org/2000/svg">
<path d="M15.75 8.24998C15.75 9.24455 15.3549 10.1984 14.6517 10.9016C13.9484 11.6049 12.9946 12 12 12C11.0054 12 10.0516 11.6049 9.34835 10.9016C8.64509 10.1984 8.25 9.24455 8.25 8.24998C8.25 7.25542 8.64509 6.3016 9.34835 5.59833C10.0516 4.89507 11.0054 4.49998 12 4.49998C12.9946 4.49998 13.9484 4.89507 14.6517 5.59833C15.3549 6.3016 15.75 7.25542 15.75 8.24998Z" fill="#BF262A"/>
<path d="M0 8.25C0 8.25 4.5 0 12 0C19.5 0 24 8.25 24 8.25C24 8.25 19.5 16.5 12 16.5C4.5 16.5 0 8.25 0 8.25ZM12 13.5C13.3924 13.5 14.7277 12.9469 15.7123 11.9623C16.6969 10.9777 17.25 9.64239 17.25 8.25C17.25 6.85761 16.6969 5.52226 15.7123 4.53769C14.7277 3.55312 13.3924 3 12 3C10.6076 3 9.27226 3.55312 8.28769 4.53769C7.30312 5.52226 6.75 6.85761 6.75 8.25C6.75 9.64239 7.30312 10.9777 8.28769 11.9623C9.27226 12.9469 10.6076 13.5 12 13.5Z" fill="#BF262A"/>
</svg>
