<svg width="17" height="17" viewBox="0 0 17 17" fill="none" xmlns="http://www.w3.org/2000/svg">
<path d="M7.44003 17C7.13977 17 6.88791 16.898 6.68445 16.694C6.48098 16.49 6.3796 16.2378 6.38031 15.9375V9.5625L0.233945 1.7C-0.0309847 1.34583 -0.0709007 0.973958 0.114197 0.584375C0.299294 0.194792 0.621802 0 1.08172 0H15.9178C16.377 0 16.6995 0.194792 16.8853 0.584375C17.0711 0.973958 17.0312 1.34583 16.7655 1.7L10.6192 9.5625V15.9375C10.6192 16.2385 10.5174 16.4911 10.314 16.6951C10.1105 16.8991 9.85901 17.0007 9.55946 17H7.44003Z" fill="#BF262A"/>
</svg>
