<svg width="15" height="17" viewBox="0 0 15 17" fill="none" xmlns="http://www.w3.org/2000/svg">
<path d="M4.6875 1.89069C4.43886 1.89069 4.2004 1.99017 4.02459 2.16723C3.84877 2.3443 3.75 2.58446 3.75 2.83488C3.75 3.08529 3.84877 3.32545 4.02459 3.50252C4.2004 3.67959 4.43886 3.77906 4.6875 3.77906C4.93614 3.77906 5.1746 3.67959 5.35041 3.50252C5.52623 3.32545 5.625 3.08529 5.625 2.83488C5.625 2.58446 5.52623 2.3443 5.35041 2.16723C5.1746 1.99017 4.93614 1.89069 4.6875 1.89069ZM2.03438 1.89069C2.22806 1.33784 2.58726 0.859101 3.06244 0.520474C3.53762 0.181846 4.10539 0 4.6875 0C5.26961 0 5.83738 0.181846 6.31256 0.520474C6.78774 0.859101 7.14694 1.33784 7.34062 1.89069H14.0625C14.3111 1.89069 14.5496 1.99017 14.7254 2.16723C14.9012 2.3443 15 2.58446 15 2.83488C15 3.08529 14.9012 3.32545 14.7254 3.50252C14.5496 3.67959 14.3111 3.77906 14.0625 3.77906H7.34062C7.14694 4.33192 6.78774 4.81065 6.31256 5.14928C5.83738 5.48791 5.26961 5.66975 4.6875 5.66975C4.10539 5.66975 3.53762 5.48791 3.06244 5.14928C2.58726 4.81065 2.22806 4.33192 2.03438 3.77906H0.9375C0.68886 3.77906 0.450403 3.67959 0.274588 3.50252C0.0987722 3.32545 0 3.08529 0 2.83488C0 2.58446 0.0987722 2.3443 0.274588 2.16723C0.450403 1.99017 0.68886 1.89069 0.9375 1.89069H2.03438ZM10.3125 7.55581C10.0639 7.55581 9.8254 7.65529 9.64959 7.83236C9.47377 8.00943 9.375 8.24959 9.375 8.5C9.375 8.75041 9.47377 8.99057 9.64959 9.16764C9.8254 9.34471 10.0639 9.44419 10.3125 9.44419C10.5611 9.44419 10.7996 9.34471 10.9754 9.16764C11.1512 8.99057 11.25 8.75041 11.25 8.5C11.25 8.24959 11.1512 8.00943 10.9754 7.83236C10.7996 7.65529 10.5611 7.55581 10.3125 7.55581ZM7.65938 7.55581C7.85306 7.00296 8.21226 6.52422 8.68744 6.1856C9.16262 5.84697 9.73039 5.66512 10.3125 5.66512C10.8946 5.66512 11.4624 5.84697 11.9376 6.1856C12.4127 6.52422 12.7719 7.00296 12.9656 7.55581H14.0625C14.3111 7.55581 14.5496 7.65529 14.7254 7.83236C14.9012 8.00943 15 8.24959 15 8.5C15 8.75041 14.9012 8.99057 14.7254 9.16764C14.5496 9.34471 14.3111 9.44419 14.0625 9.44419H12.9656C12.7719 9.99704 12.4127 10.4758 11.9376 10.8144C11.4624 11.153 10.8946 11.3349 10.3125 11.3349C9.73039 11.3349 9.16262 11.153 8.68744 10.8144C8.21226 10.4758 7.85306 9.99704 7.65938 9.44419H0.9375C0.68886 9.44419 0.450403 9.34471 0.274588 9.16764C0.0987722 8.99057 0 8.75041 0 8.5C0 8.24959 0.0987722 8.00943 0.274588 7.83236C0.450403 7.65529 0.68886 7.55581 0.9375 7.55581H7.65938ZM4.6875 13.2209C4.43886 13.2209 4.2004 13.3204 4.02459 13.4975C3.84877 13.6746 3.75 13.9147 3.75 14.1651C3.75 14.4155 3.84877 14.6557 4.02459 14.8328C4.2004 15.0098 4.43886 15.1093 4.6875 15.1093C4.93614 15.1093 5.1746 15.0098 5.35041 14.8328C5.52623 14.6557 5.625 14.4155 5.625 14.1651C5.625 13.9147 5.52623 13.6746 5.35041 13.4975C5.1746 13.3204 4.93614 13.2209 4.6875 13.2209ZM2.03438 13.2209C2.22806 12.6681 2.58726 12.1893 3.06244 11.8507C3.53762 11.5121 4.10539 11.3302 4.6875 11.3302C5.26961 11.3302 5.83738 11.5121 6.31256 11.8507C6.78774 12.1893 7.14694 12.6681 7.34062 13.2209H14.0625C14.3111 13.2209 14.5496 13.3204 14.7254 13.4975C14.9012 13.6746 15 13.9147 15 14.1651C15 14.4155 14.9012 14.6557 14.7254 14.8328C14.5496 15.0098 14.3111 15.1093 14.0625 15.1093H7.34062C7.14694 15.6622 6.78774 16.1409 6.31256 16.4795C5.83738 16.8182 5.26961 17 4.6875 17C4.10539 17 3.53762 16.8182 3.06244 16.4795C2.58726 16.1409 2.22806 15.6622 2.03438 15.1093H0.9375C0.68886 15.1093 0.450403 15.0098 0.274588 14.8328C0.0987722 14.6557 0 14.4155 0 14.1651C0 13.9147 0.0987722 13.6746 0.274588 13.4975C0.450403 13.3204 0.68886 13.2209 0.9375 13.2209H2.03438Z" fill="#BF262A"/>
</svg>
