<svg width="16" height="16" viewBox="0 0 16 16" fill="none" xmlns="http://www.w3.org/2000/svg">
<path d="M11.5556 10.6652C12.7164 10.6652 13.7049 11.4073 14.0711 12.4428H15.1111C15.3469 12.4428 15.573 12.5364 15.7397 12.7031C15.9063 12.8697 16 13.0958 16 13.3315C16 13.5672 15.9063 13.7933 15.7397 13.96C15.573 14.1266 15.3469 14.2203 15.1111 14.2203H14.0711C13.8875 14.7407 13.5469 15.1913 13.0964 15.5101C12.6458 15.8288 12.1075 16 11.5556 16C11.0036 16 10.4653 15.8288 10.0148 15.5101C9.56421 15.1913 9.22365 14.7407 9.04 14.2203H0.888889C0.653141 14.2203 0.427048 14.1266 0.260349 13.96C0.0936505 13.7933 0 13.5672 0 13.3315C0 13.0958 0.0936505 12.8697 0.260349 12.7031C0.427048 12.5364 0.653141 12.4428 0.888889 12.4428H9.04C9.22401 11.9228 9.56473 11.4726 10.0152 11.1543C10.4658 10.8359 11.0039 10.6651 11.5556 10.6652ZM4.44444 5.33261C4.96799 5.33254 5.47998 5.48656 5.91656 5.77547C6.35315 6.06438 6.69502 6.4754 6.89956 6.95727L6.95911 7.11014H15.1111C15.3377 7.11039 15.5556 7.19713 15.7203 7.35264C15.8851 7.50815 15.9842 7.72069 15.9975 7.94682C16.0108 8.17296 15.9372 8.39564 15.7918 8.56935C15.6464 8.74306 15.4401 8.8547 15.2151 8.88146L15.1111 8.88768H6.96C6.7808 9.39453 6.4526 9.83541 6.01843 10.1525C5.58426 10.4696 5.06439 10.6481 4.52698 10.6646C3.98957 10.6812 3.45971 10.5349 3.00687 10.2451C2.55403 9.95531 2.19935 9.53543 1.98933 9.04055L1.92889 8.88768H0.888889C0.662329 8.88743 0.444416 8.80069 0.279673 8.64518C0.114929 8.48967 0.0157911 8.27714 0.00251367 8.051C-0.0107638 7.82486 0.0628219 7.60218 0.208235 7.42847C0.353649 7.25476 0.559915 7.14312 0.784889 7.11636L0.888889 7.11014H1.92889C2.1129 6.59015 2.45362 6.13998 2.90413 5.82164C3.35464 5.5033 3.89278 5.33245 4.44444 5.33261ZM11.5556 1.11065e-07C12.7164 1.11065e-07 13.7049 0.742121 14.0711 1.77754H15.1111C15.3469 1.77754 15.573 1.87117 15.7397 2.03785C15.9063 2.20453 16 2.43059 16 2.6663C16 2.90202 15.9063 3.12808 15.7397 3.29476C15.573 3.46143 15.3469 3.55507 15.1111 3.55507H14.0711C13.8875 4.07547 13.5469 4.52611 13.0964 4.84486C12.6458 5.16361 12.1075 5.33479 11.5556 5.33479C11.0036 5.33479 10.4653 5.16361 10.0148 4.84486C9.56421 4.52611 9.22365 4.07547 9.04 3.55507H0.888889C0.653141 3.55507 0.427048 3.46143 0.260349 3.29476C0.0936505 3.12808 0 2.90202 0 2.6663C0 2.43059 0.0936505 2.20453 0.260349 2.03785C0.427048 1.87117 0.653141 1.77754 0.888889 1.77754H9.04C9.22401 1.25754 9.56473 0.807375 10.0152 0.489036C10.4658 0.170696 11.0039 -0.000159026 11.5556 1.11065e-07Z" fill="#BF262A"/>
</svg>
