<svg width="17" height="19" viewBox="0 0 17 19" fill="none" xmlns="http://www.w3.org/2000/svg">
<path d="M10.0011 9V16.88C10.0411 17.18 9.94111 17.5 9.71111 17.71C9.61859 17.8027 9.50871 17.8762 9.38773 17.9264C9.26676 17.9766 9.13708 18.0024 9.00611 18.0024C8.87514 18.0024 8.74546 17.9766 8.62448 17.9264C8.50351 17.8762 8.39362 17.8027 8.30111 17.71L6.29111 15.7C6.18204 15.5934 6.09911 15.463 6.04881 15.319C5.9985 15.175 5.98217 15.0213 6.00111 14.87V9H5.97111L0.211108 1.62C0.0487158 1.41153 -0.0245586 1.14726 0.00729555 0.88493C0.0391497 0.622602 0.173543 0.383546 0.381108 0.22C0.571108 0.08 0.781108 0 1.00111 0H15.0011C15.2211 0 15.4311 0.08 15.6211 0.22C15.8287 0.383546 15.9631 0.622602 15.9949 0.88493C16.0268 1.14726 15.9535 1.41153 15.7911 1.62L10.0311 9H10.0011Z" fill="#BF262A"/>
</svg>
