<svg width="25" height="14" viewBox="0 0 25 14" fill="none" xmlns="http://www.w3.org/2000/svg">
<path d="M1.17188 0H23.8281C24.1389 0 24.437 0.116447 24.6568 0.323724C24.8765 0.531001 25 0.812129 25 1.10526C25 1.3984 24.8765 1.67953 24.6568 1.8868C24.437 2.09408 24.1389 2.21053 23.8281 2.21053H1.17188C0.861074 2.21053 0.563003 2.09408 0.343234 1.8868C0.123465 1.67953 0 1.3984 0 1.10526C0 0.812129 0.123465 0.531001 0.343234 0.323724C0.563003 0.116447 0.861074 0 1.17188 0ZM4.6875 7C4.6875 6.70687 4.81097 6.42574 5.03073 6.21846C5.2505 6.01118 5.54857 5.89474 5.85938 5.89474H19.1406C19.4514 5.89474 19.7495 6.01118 19.9693 6.21846C20.189 6.42574 20.3125 6.70687 20.3125 7C20.3125 7.29313 20.189 7.57426 19.9693 7.78154C19.7495 7.98882 19.4514 8.10526 19.1406 8.10526H5.85938C5.54857 8.10526 5.2505 7.98882 5.03073 7.78154C4.81097 7.57426 4.6875 7.29313 4.6875 7ZM9.375 12.8947C9.375 12.6016 9.49846 12.3205 9.71823 12.1132C9.938 11.9059 10.2361 11.7895 10.5469 11.7895H14.4531C14.7639 11.7895 15.062 11.9059 15.2818 12.1132C15.5015 12.3205 15.625 12.6016 15.625 12.8947C15.625 13.1879 15.5015 13.469 15.2818 13.6763C15.062 13.8836 14.7639 14 14.4531 14H10.5469C10.2361 14 9.938 13.8836 9.71823 13.6763C9.49846 13.469 9.375 13.1879 9.375 12.8947Z" fill="#BF262A"/>
</svg>
