<svg width="19" height="24" viewBox="0 0 19 24" fill="none" xmlns="http://www.w3.org/2000/svg">
<path d="M9.5 18.2857C10.1299 18.2857 10.734 18.0449 11.1794 17.6162C11.6248 17.1876 11.875 16.6062 11.875 16C11.875 15.3938 11.6248 14.8124 11.1794 14.3838C10.734 13.9551 10.1299 13.7143 9.5 13.7143C8.87011 13.7143 8.26602 13.9551 7.82062 14.3838C7.37522 14.8124 7.125 15.3938 7.125 16C7.125 16.6062 7.37522 17.1876 7.82062 17.6162C8.26602 18.0449 8.87011 18.2857 9.5 18.2857ZM16.625 8C17.2549 8 17.859 8.24082 18.3044 8.66947C18.7498 9.09813 19 9.67951 19 10.2857V21.7143C19 22.3205 18.7498 22.9019 18.3044 23.3305C17.859 23.7592 17.2549 24 16.625 24H2.375C1.74511 24 1.14102 23.7592 0.695621 23.3305C0.250222 22.9019 0 22.3205 0 21.7143V10.2857C0 9.67951 0.250222 9.09813 0.695621 8.66947C1.14102 8.24082 1.74511 8 2.375 8H3.5625V5.71429C3.5625 4.19876 4.18806 2.74531 5.30155 1.67368C6.41505 0.602039 7.92528 0 9.5 0C10.2797 0 11.0518 0.147804 11.7722 0.434974C12.4926 0.722144 13.1471 1.14306 13.6984 1.67368C14.2498 2.2043 14.6871 2.83423 14.9855 3.52752C15.2839 4.22081 15.4375 4.96388 15.4375 5.71429V8H16.625ZM9.5 2.28571C8.55517 2.28571 7.64903 2.64694 6.98093 3.28992C6.31283 3.9329 5.9375 4.80497 5.9375 5.71429V8H13.0625V5.71429C13.0625 4.80497 12.6872 3.9329 12.0191 3.28992C11.351 2.64694 10.4448 2.28571 9.5 2.28571Z" fill="#BF262A"/>
</svg>
