<svg width="26" height="14" viewBox="0 0 26 14" fill="none" xmlns="http://www.w3.org/2000/svg">
<path fill-rule="evenodd" clip-rule="evenodd" d="M0 2C0 1.46957 0.195663 0.96086 0.543944 0.585787C0.892226 0.210714 1.3646 0 1.85714 0H24.1429C24.6354 0 25.1078 0.210714 25.4561 0.585787C25.8043 0.96086 26 1.46957 26 2C26 2.53043 25.8043 3.03914 25.4561 3.41421C25.1078 3.78929 24.6354 4 24.1429 4H1.85714C1.3646 4 0.892226 3.78929 0.543944 3.41421C0.195663 3.03914 0 2.53043 0 2ZM0 12C0 11.4696 0.195663 10.9609 0.543944 10.5858C0.892226 10.2107 1.3646 10 1.85714 10H18.6429C19.1354 10 19.6078 10.2107 19.9561 10.5858C20.3043 10.9609 20.5 11.4696 20.5 12C20.5 12.5304 20.3043 13.0391 19.9561 13.4142C19.6078 13.7893 19.1354 14 18.6429 14H1.85714C1.3646 14 0.892226 13.7893 0.543944 13.4142C0.195663 13.0391 0 12.5304 0 12Z" fill="#BF262A"/>
</svg>
