<svg width="22" height="24" viewBox="0 0 22 24" fill="none" xmlns="http://www.w3.org/2000/svg">
<path fill-rule="evenodd" clip-rule="evenodd" d="M6.66667 0C6.31305 0 5.97391 0.140476 5.72386 0.390524C5.47381 0.640573 5.33333 0.979711 5.33333 1.33333C5.33333 1.68696 5.47381 2.02609 5.72386 2.27614C5.97391 2.52619 6.31305 2.66667 6.66667 2.66667H18.6667V20C18.6667 20.3536 18.5262 20.6928 18.2761 20.9428C18.0261 21.1929 17.687 21.3333 17.3333 21.3333H6.66667C6.31305 21.3333 5.97391 21.4738 5.72386 21.7239C5.47381 21.9739 5.33333 22.313 5.33333 22.6667C5.33333 23.0203 5.47381 23.3594 5.72386 23.6095C5.97391 23.8595 6.31305 24 6.66667 24H17.3333C18.3942 24 19.4116 23.5786 20.1618 22.8284C20.9119 22.0783 21.3333 21.0609 21.3333 20V1.33333C21.3333 0.979711 21.1929 0.640573 20.9428 0.390524C20.6928 0.140476 20.3536 0 20 0H6.66667ZM11.6093 7.05733C11.4229 6.87092 11.1853 6.74398 10.9267 6.69256C10.6681 6.64113 10.4001 6.66754 10.1565 6.76843C9.91286 6.86932 9.70464 7.04018 9.55813 7.25939C9.41162 7.4786 9.33339 7.73633 9.33333 8V10.6667H1.33333C0.979711 10.6667 0.640573 10.8071 0.390525 11.0572C0.140476 11.3072 0 11.6464 0 12C0 12.3536 0.140476 12.6928 0.390525 12.9428C0.640573 13.1929 0.979711 13.3333 1.33333 13.3333H9.33333V16C9.33339 16.2637 9.41162 16.5214 9.55813 16.7406C9.70464 16.9598 9.91286 17.1307 10.1565 17.2316C10.4001 17.3325 10.6681 17.3589 10.9267 17.3074C11.1853 17.256 11.4229 17.1291 11.6093 16.9427L15.6093 12.9427C15.8593 12.6926 15.9997 12.3536 15.9997 12C15.9997 11.6464 15.8593 11.3074 15.6093 11.0573L11.6093 7.05733Z" fill="#BF262A"/>
</svg>
