<svg width="17" height="15" viewBox="0 0 17 15" fill="none" xmlns="http://www.w3.org/2000/svg">
<path d="M5.9675 4.58751L1.86513 5.16564L1.79247 5.18001C1.68248 5.2084 1.58221 5.26464 1.5019 5.34301C1.42158 5.42138 1.36411 5.51907 1.33534 5.62609C1.30657 5.73311 1.30754 5.84564 1.33815 5.95218C1.36875 6.05872 1.4279 6.15546 1.50955 6.23251L4.48152 9.04439L3.78064 13.0163L3.77228 13.085C3.76555 13.1956 3.78917 13.3059 3.84073 13.4047C3.89229 13.5035 3.96993 13.5872 4.06571 13.6472C4.16149 13.7072 4.27196 13.7414 4.38581 13.7463C4.49966 13.7512 4.6128 13.7266 4.71364 13.675L8.38262 11.8L12.0432 13.675L12.1075 13.7038C12.2137 13.7444 12.329 13.7569 12.4418 13.7399C12.5545 13.7229 12.6605 13.677 12.749 13.6071C12.8375 13.5371 12.9052 13.4455 12.9453 13.3417C12.9853 13.2378 12.9962 13.1255 12.9769 13.0163L12.2754 9.04439L15.2486 6.23189L15.2988 6.17876C15.3704 6.09299 15.4174 5.9903 15.4349 5.88113C15.4524 5.77197 15.4399 5.66025 15.3985 5.55734C15.3571 5.45444 15.2884 5.36403 15.1994 5.29533C15.1104 5.22663 15.0042 5.1821 14.8918 5.16626L10.7894 4.58751L8.95554 0.975013C8.90248 0.870347 8.82033 0.78221 8.71839 0.720578C8.61646 0.658946 8.49881 0.626282 8.37877 0.626282C8.25872 0.626282 8.14107 0.658946 8.03914 0.720578C7.9372 0.78221 7.85505 0.870347 7.80199 0.975013L5.9675 4.58751Z" fill="#991F21"/>
</svg>
