<svg width="24" height="22" viewBox="0 0 24 22" fill="none" xmlns="http://www.w3.org/2000/svg">
<path d="M8.148 6.64587L1.58421 7.60942L1.46796 7.63337C1.29197 7.68068 1.13153 7.77443 1.00303 7.90504C0.874532 8.03566 0.782571 8.19847 0.736541 8.37684C0.690511 8.55521 0.692061 8.74276 0.741032 8.92033C0.790004 9.09789 0.884642 9.25912 1.01528 9.38754L5.77043 14.074L4.64903 20.6938L4.63565 20.8084C4.62488 20.9927 4.66268 21.1765 4.74517 21.3412C4.82766 21.5058 4.95189 21.6453 5.10514 21.7454C5.25838 21.8454 5.43513 21.9024 5.61729 21.9106C5.79945 21.9187 5.98047 21.8777 6.14183 21.7917L12.0122 18.6667L17.8692 21.7917L17.9721 21.8396C18.1419 21.9073 18.3264 21.9281 18.5068 21.8998C18.6872 21.8715 18.8568 21.7951 18.9984 21.6784C19.14 21.5618 19.2484 21.4092 19.3124 21.2361C19.3765 21.0631 19.394 20.8759 19.363 20.6938L18.2406 14.074L22.9978 9.3865L23.078 9.29796C23.1927 9.15501 23.2678 8.98385 23.2959 8.80191C23.3239 8.61998 23.3038 8.43377 23.2376 8.26226C23.1714 8.09075 23.0615 7.94007 22.9191 7.82558C22.7767 7.71108 22.6068 7.63685 22.4268 7.61046L15.863 6.64587L12.9289 0.625041C12.844 0.450598 12.7125 0.303703 12.5494 0.200984C12.3863 0.0982643 12.1981 0.0438232 12.006 0.0438232C11.814 0.0438232 11.6257 0.0982643 11.4626 0.200984C11.2995 0.303703 11.1681 0.450598 11.0832 0.625041L8.148 6.64587Z" fill="#461516"/>
</svg>
