<svg width="22" height="22" viewBox="0 0 22 22" fill="none" xmlns="http://www.w3.org/2000/svg">
<path d="M3.85 5.5C3.41239 5.5 2.99271 5.32616 2.68327 5.01673C2.37384 4.70729 2.2 4.28761 2.2 3.85C2.2 3.41239 2.37384 2.99271 2.68327 2.68327C2.99271 2.37384 3.41239 2.2 3.85 2.2C4.28761 2.2 4.70729 2.37384 5.01673 2.68327C5.32616 2.99271 5.5 3.41239 5.5 3.85C5.5 4.28761 5.32616 4.70729 5.01673 5.01673C4.70729 5.32616 4.28761 5.5 3.85 5.5ZM21.351 10.538L11.451 0.638C11.055 0.242 10.505 0 9.9 0H2.2C0.979 0 0 0.979 0 2.2V9.9C0 10.505 0.242 11.055 0.649 11.451L10.538 21.351C10.945 21.747 11.495 22 12.1 22C12.705 22 13.255 21.747 13.651 21.351L21.351 13.651C21.758 13.255 22 12.705 22 12.1C22 11.484 21.747 10.934 21.351 10.538Z" fill="#BF262A"/>
</svg>
