<svg width="22" height="10" viewBox="0 0 22 10" fill="none" xmlns="http://www.w3.org/2000/svg">
<path d="M4.61246 0.24476C4.67648 0.32215 4.72727 0.414086 4.76193 0.515302C4.79658 0.616518 4.81442 0.725026 4.81442 0.834611C4.81442 0.944195 4.79658 1.0527 4.76193 1.15392C4.72727 1.25514 4.67648 1.34707 4.61246 1.42446L2.34809 4.1671H8.93773C9.12004 4.1671 9.29489 4.25487 9.42381 4.41111C9.55273 4.56735 9.62515 4.77926 9.62515 5.00022C9.62515 5.22118 9.55273 5.43308 9.42381 5.58932C9.29489 5.74557 9.12004 5.83334 8.93773 5.83334H2.34809L4.61246 8.57598C4.74154 8.73241 4.81406 8.94459 4.81406 9.16583C4.81406 9.38706 4.74154 9.59924 4.61246 9.75568C4.48338 9.91212 4.30831 10 4.12577 10C3.94322 10 3.76815 9.91212 3.63907 9.75568L0.201956 5.59007C0.137939 5.51268 0.0871484 5.42074 0.0524934 5.31953C0.0178384 5.21831 0 5.1098 0 5.00022C0 4.89063 0.0178384 4.78213 0.0524934 4.68091C0.0871484 4.57969 0.137939 4.48776 0.201956 4.41037L3.63907 0.24476C3.70293 0.167175 3.77879 0.105619 3.8623 0.0636185C3.94582 0.0216185 4.03535 0 4.12577 0C4.21619 0 4.30572 0.0216185 4.38923 0.0636185C4.47275 0.105619 4.54861 0.167175 4.61246 0.24476ZM17.3875 0.24476C17.4514 0.167175 17.5272 0.105619 17.6108 0.0636185C17.6943 0.0216185 17.7838 0 17.8742 0C17.9646 0 18.0542 0.0216185 18.1377 0.0636185C18.2212 0.105619 18.2971 0.167175 18.3609 0.24476L21.798 4.41037C21.8621 4.48776 21.9128 4.57969 21.9475 4.68091C21.9822 4.78213 22 4.89063 22 5.00022C22 5.1098 21.9822 5.21831 21.9475 5.31953C21.9128 5.42074 21.8621 5.51268 21.798 5.59007L18.3609 9.75568C18.2318 9.91212 18.0568 10 17.8742 10C17.6917 10 17.5166 9.91212 17.3875 9.75568C17.2585 9.59924 17.1859 9.38706 17.1859 9.16583C17.1859 8.94459 17.2585 8.73241 17.3875 8.57598L19.6519 5.83334H13.0623C12.88 5.83334 12.7051 5.74557 12.5762 5.58932C12.4473 5.43308 12.3748 5.22118 12.3748 5.00022C12.3748 4.77926 12.4473 4.56735 12.5762 4.41111C12.7051 4.25487 12.88 4.1671 13.0623 4.1671H19.6519L17.3875 1.42446C17.3235 1.34707 17.2727 1.25514 17.2381 1.15392C17.2034 1.0527 17.1856 0.944195 17.1856 0.834611C17.1856 0.725026 17.2034 0.616518 17.2381 0.515302C17.2727 0.414086 17.3235 0.32215 17.3875 0.24476Z" fill="#BF262A"/>
</svg>
