<svg width="23" height="24" viewBox="0 0 23 24" fill="none" xmlns="http://www.w3.org/2000/svg">
<path d="M11.5 0C13.025 0 14.4875 0.632141 15.5659 1.75736C16.6442 2.88258 17.25 4.4087 17.25 6C17.25 7.5913 16.6442 9.11742 15.5659 10.2426C14.4875 11.3679 13.025 12 11.5 12C9.97501 12 8.51247 11.3679 7.43414 10.2426C6.3558 9.11742 5.75 7.5913 5.75 6C5.75 4.4087 6.3558 2.88258 7.43414 1.75736C8.51247 0.632141 9.97501 0 11.5 0ZM11.5 3C10.7375 3 10.0062 3.31607 9.46707 3.87868C8.9279 4.44129 8.625 5.20435 8.625 6C8.625 6.79565 8.9279 7.55871 9.46707 8.12132C10.0062 8.68393 10.7375 9 11.5 9C12.2625 9 12.9938 8.68393 13.5329 8.12132C14.0721 7.55871 14.375 6.79565 14.375 6C14.375 5.20435 14.0721 4.44129 13.5329 3.87868C12.9938 3.31607 12.2625 3 11.5 3ZM11.5 13.5C15.3381 13.5 23 15.495 23 19.5V24H0V19.5C0 15.495 7.66187 13.5 11.5 13.5ZM11.5 16.35C7.23062 16.35 2.73125 18.54 2.73125 19.5V21.15H20.2687V19.5C20.2687 18.54 15.7694 16.35 11.5 16.35Z" fill="#BF262A"/>
</svg>
