<svg width="23" height="25" viewBox="0 0 23 25" fill="none" xmlns="http://www.w3.org/2000/svg">
<path d="M18.2083 6.73077C18.2083 8.51588 17.5016 10.2279 16.2435 11.4901C14.9855 12.7524 13.2792 13.4615 11.5 13.4615C9.72084 13.4615 8.01455 12.7524 6.75649 11.4901C5.49844 10.2279 4.79167 8.51588 4.79167 6.73077C4.79167 4.94566 5.49844 3.23366 6.75649 1.9714C8.01455 0.709133 9.72084 0 11.5 0C13.2792 0 14.9855 0.709133 16.2435 1.9714C17.5016 3.23366 18.2083 4.94566 18.2083 6.73077ZM1.91667 25H22.0417C22.2958 25 22.5396 24.8987 22.7193 24.7184C22.899 24.538 23 24.2935 23 24.0385V21.1538C23 19.8788 22.4952 18.6559 21.5966 17.7543C20.6979 16.8527 19.4792 16.3462 18.2083 16.3462H4.79167C3.52084 16.3462 2.30206 16.8527 1.40345 17.7543C0.504835 18.6559 0 19.8788 0 21.1538V24.0385C0 24.2935 0.100967 24.538 0.280689 24.7184C0.460411 24.8987 0.704168 25 0.958334 25H1.91667Z" fill="#BF262A"/>
</svg>
